<svg width="20" height="18" viewBox="0 0 20 18" fill="none" xmlns="http://www.w3.org/2000/svg">
<path d="M2.41815 10.1231C3.11671 11.1667 4.09067 12.2743 5.321 13.4128C6.34009 14.3561 7.35702 15.1559 8.13145 15.7273C8.51794 16.0125 8.84266 16.2399 9.07508 16.3984C9.19129 16.4777 9.28417 16.5396 9.34983 16.583C9.38281 16.6047 9.40873 16.6215 9.42716 16.6335C9.44012 16.6417 9.44789 16.6467 9.45149 16.649L9.45365 16.6505L9.46503 16.6576L9.99754 16.9997L9.99999 17L10.003 16.9994L10.5351 16.6575C10.6085 16.6102 12.634 15.3036 14.6793 13.4125C15.9097 12.274 16.8835 11.1664 17.582 10.1226C18.0234 9.46225 18.3621 8.82138 18.5907 8.21775L18.5913 8.216C18.8674 7.49251 19 6.79855 19 6.14793V6.14575C19.0019 5.4512 18.8629 4.77687 18.5893 4.13964C18.3252 3.52698 17.9445 2.97134 17.4678 2.50414C16.9896 2.03447 16.425 1.66022 15.8056 1.40336C15.1631 1.13583 14.4726 0.998414 13.7764 1.00001H13.7748C12.796 1.00001 11.8426 1.2686 11.0153 1.77455C10.8175 1.89556 10.6298 2.02807 10.4526 2.17222L10.0011 2.5392L9.5497 2.17222C9.37244 2.02807 9.18495 1.89556 8.98695 1.77455C8.15953 1.2686 7.20625 1.00001 6.22748 1.00001C5.52131 1.00001 4.84062 1.13526 4.19752 1.40298C3.57573 1.66099 3.01562 2.03185 2.53474 2.50385C2.05784 2.97018 1.67621 3.5264 1.41311 4.13905C1.13941 4.77658 1 5.45164 1 6.14793C1 6.79855 1.13254 7.49251 1.40859 8.216M2.41815 10.1231C1.97761 9.464 1.6403 8.82226 1.40859 8.216M2.41815 10.1231L1.40859 8.216" stroke="#A4A1A1"/>
</svg>
