<svg width="18" height="16" viewBox="0 0 18 16" fill="none" xmlns="http://www.w3.org/2000/svg">
<g filter="url(#filter0_b_21_56)">
<path d="M17.5645 3.27888C17.2852 2.63724 16.8826 2.05579 16.379 1.56709C15.875 1.07693 15.2809 0.687405 14.6287 0.419693C13.9526 0.140996 13.2273 -0.00165796 12.4952 1.45377e-05C11.468 1.45377e-05 10.4658 0.279111 9.59486 0.806292C9.38651 0.932405 9.18857 1.07092 9.00104 1.22184C8.81352 1.07092 8.61558 0.932405 8.40722 0.806292C7.53629 0.279111 6.53409 1.45377e-05 5.50689 1.45377e-05C4.76721 1.45377e-05 4.05046 0.140596 3.37331 0.419693C2.71906 0.688455 2.12941 1.07506 1.6231 1.56709C1.11887 2.05524 0.716072 2.63683 0.43755 3.27888C0.147934 3.94664 0 4.65576 0 5.38554C0 6.07398 0.141683 6.79137 0.422965 7.52116C0.658409 8.13103 0.995947 8.76365 1.42725 9.40247C2.11066 10.4134 3.05035 11.4678 4.21715 12.5366C6.15071 14.3084 8.06552 15.5323 8.14678 15.5819L8.64058 15.8961C8.85936 16.0346 9.14064 16.0346 9.35942 15.8961L9.85322 15.5819C9.93448 15.5303 11.8472 14.3084 13.7828 12.5366C14.9496 11.4678 15.8894 10.4134 16.5727 9.40247C17.0041 8.76365 17.3437 8.13103 17.577 7.52116C17.8584 6.79137 18 6.07398 18 5.38554C18.0021 4.65576 17.8541 3.94664 17.5645 3.27888Z" fill="#FF8585"/>
</g>
<defs>
<filter id="filter0_b_21_56" x="-4" y="-4" width="26" height="24" filterUnits="userSpaceOnUse" color-interpolation-filters="sRGB">
<feFlood flood-opacity="0" result="BackgroundImageFix"/>
<feGaussianBlur in="BackgroundImageFix" stdDeviation="2"/>
<feComposite in2="SourceAlpha" operator="in" result="effect1_backgroundBlur_21_56"/>
<feBlend mode="normal" in="SourceGraphic" in2="effect1_backgroundBlur_21_56" result="shape"/>
</filter>
</defs>
</svg>
