<svg width="22" height="24" viewBox="0 0 22 24" fill="none" xmlns="http://www.w3.org/2000/svg">
<path d="M10.9844 0.486328C10.7195 0.490468 10.4671 0.599528 10.2825 0.789572C10.098 0.979616 9.99637 1.23512 10 1.5V2H4.5C4.36753 1.9982 4.23603 2.02274 4.11313 2.07219C3.99023 2.12164 3.87838 2.19501 3.78407 2.28805C3.68976 2.38108 3.61487 2.49193 3.56376 2.61415C3.51265 2.73637 3.48633 2.86752 3.48633 3H2C1.86749 2.99813 1.73592 3.02261 1.61296 3.07202C1.48999 3.12143 1.37807 3.1948 1.2837 3.28784C1.18933 3.38088 1.11439 3.49176 1.06324 3.61401C1.0121 3.73627 0.985756 3.86747 0.985756 4C0.985756 4.13253 1.0121 4.26373 1.06324 4.38599C1.11439 4.50824 1.18933 4.61912 1.2837 4.71216C1.37807 4.8052 1.48999 4.87857 1.61296 4.92798C1.73592 4.97739 1.86749 5.00187 2 5H20C20.1325 5.00187 20.2641 4.97739 20.387 4.92798C20.51 4.87857 20.6219 4.8052 20.7163 4.71216C20.8107 4.61912 20.8856 4.50824 20.9368 4.38599C20.9879 4.26373 21.0142 4.13253 21.0142 4C21.0142 3.86747 20.9879 3.73627 20.9368 3.61401C20.8856 3.49176 20.8107 3.38088 20.7163 3.28784C20.6219 3.1948 20.51 3.12143 20.387 3.07202C20.2641 3.02261 20.1325 2.99813 20 3H18.5137C18.5137 2.86752 18.4873 2.73637 18.4362 2.61415C18.3851 2.49193 18.3102 2.38108 18.2159 2.28805C18.1216 2.19501 18.0098 2.12164 17.8869 2.07219C17.764 2.02274 17.6325 1.9982 17.5 2H12V1.5C12.0018 1.36621 11.9768 1.23341 11.9264 1.10947C11.876 0.985533 11.8012 0.872969 11.7065 0.778448C11.6118 0.683927 11.4991 0.60937 11.375 0.559193C11.251 0.509016 11.1182 0.484238 10.9844 0.486328ZM2 7L3.79297 22.2344C3.91097 23.2414 4.76334 24 5.77734 24H16.2227C17.2367 24 18.088 23.2414 18.207 22.2344L20 7H2Z" fill="#666666"/>
</svg>
